<?xml version="1.0" encoding="utf-8"?>
<!-- Generator: Adobe Illustrator 23.1.1, SVG Export Plug-In . SVG Version: 6.00 Build 0)  -->
<svg version="1.1" id="Layer_1" xmlns="http://www.w3.org/2000/svg" xmlns:xlink="http://www.w3.org/1999/xlink" x="0px" y="0px"
	 viewBox="0 0 2048 2732" style="enable-background:new 0 0 2048 2732;" xml:space="preserve">
<style type="text/css">
	.st0{fill:url(#SVGID_1_);}
	.st1{fill:#FFFFFF;}
	.st2{fill:url(#SVGID_2_);}
	.st3{opacity:0.6;fill:url(#SVGID_3_);}
	.st4{fill:url(#SVGID_4_);}
	.st5{opacity:0.6;fill:url(#SVGID_5_);}
	.st6{fill:url(#SVGID_6_);}
	.st7{opacity:0.6;fill:url(#SVGID_7_);}
	.st8{fill:url(#SVGID_8_);}
	.st9{opacity:0.6;fill:url(#SVGID_9_);}
	.st10{fill:url(#SVGID_10_);}
	.st11{opacity:0.6;fill:url(#SVGID_11_);}
	.st12{fill:url(#SVGID_12_);}
	.st13{opacity:0.6;fill:url(#SVGID_13_);}
	.st14{fill:url(#SVGID_14_);}
</style>
<linearGradient id="SVGID_1_" gradientUnits="userSpaceOnUse" x1="-467.7868" y1="3859.6753" x2="2313.5571" y2="-788.0696">
	<stop  offset="0" style="stop-color:#D7FCFF"/>
	<stop  offset="1" style="stop-color:#EBFFE9"/>
</linearGradient>
<rect x="1" class="st0" width="2047" height="2732"/>
<g>
	<path class="st1" d="M0,1856c0,0,447.8,141,959.4,112s831.9-101,1088.6-162c0,616,0,924,0,924H0V1856z"/>
	<path class="st1" d="M0,1891c0,0,466,147,1046.8,122s912-102,1001.2-122c0,318,0,839,0,839H0V1891z"/>
</g>
<g>
	<linearGradient id="SVGID_2_" gradientUnits="userSpaceOnUse" x1="498.578" y1="3289.5481" x2="1443.7458" y2="1496.8839">
		<stop  offset="0" style="stop-color:#2D88B6"/>
		<stop  offset="7.841776e-02" style="stop-color:#369AB9"/>
		<stop  offset="0.2402" style="stop-color:#45BABF"/>
		<stop  offset="0.4087" style="stop-color:#51D3C4"/>
		<stop  offset="0.5845" style="stop-color:#59E4C7"/>
		<stop  offset="0.7723" style="stop-color:#5EEFC9"/>
		<stop  offset="0.9931" style="stop-color:#60F2CA"/>
	</linearGradient>
	<path style="opacity:0.6;fill:url(#SVGID_2_);" d="M0,1856c0,0,447.8,141,959.4,112s831.9-101,1088.6-162c0,616,0,924,0,924H0V1856
		z"/>
	<linearGradient id="SVGID_3_" gradientUnits="userSpaceOnUse" x1="510.9898" y1="3283.5073" x2="1416.064" y2="1566.8871">
		<stop  offset="0" style="stop-color:#2D88B6"/>
		<stop  offset="7.225700e-02" style="stop-color:#3292B8"/>
		<stop  offset="0.497" style="stop-color:#4BC6C2"/>
		<stop  offset="0.8169" style="stop-color:#5AE6C8"/>
		<stop  offset="0.9931" style="stop-color:#60F2CA"/>
	</linearGradient>
	<path style="fill:url(#SVGID_3_);" d="M0,1891c0,0,466,147,1046.8,122s912-102,1001.2-122c0,318,0,839,0,839H0V1891z"/>
</g>
</svg>
